<svg width="132" height="30" viewBox="0 0 132 30" fill="none" xmlns="http://www.w3.org/2000/svg">
<path d="M11.0398 28.0465C8.66876 28.0465 6.68089 27.7584 5.07622 27.1823C3.47155 26.5822 2.23812 25.694 1.37591 24.5177C0.683866 23.5466 0.228519 22.3874 0.00986292 21.04C-0.0665179 20.5693 0.311 20.1607 0.786761 20.1607H7.21173C7.59937 20.1607 7.91917 20.4418 8.07055 20.7995C8.24114 21.2026 8.48845 21.5178 8.81246 21.7451C9.29147 22.0572 10.0339 22.2132 11.0398 22.2132C12.1416 22.2132 12.9439 22.0692 13.4468 21.7811C13.9498 21.493 14.2013 21.0609 14.2013 20.4848C14.2013 20.0287 14.0217 19.6566 13.6624 19.3686C13.3271 19.0805 12.7523 18.8284 11.938 18.6124C11.1476 18.3723 10.0938 18.1083 8.77654 17.8202C7.14792 17.4601 5.72288 16.98 4.50142 16.3799C3.27995 15.7558 2.32194 14.9156 1.62738 13.8593C0.956776 12.7791 0.621472 11.3868 0.621472 9.6824C0.621472 7.95401 1.05258 6.51369 1.91479 5.36143C2.777 4.20917 3.98649 3.33298 5.54325 2.73284C7.12397 2.13271 8.95617 1.83264 11.0398 1.83264C13.2912 1.83264 15.1593 2.13271 16.6442 2.73284C18.1531 3.33298 19.3147 4.19717 20.129 5.32542C20.8021 6.23148 21.2591 7.27688 21.4998 8.4616C21.5963 8.93655 21.2159 9.35833 20.7323 9.35833H14.3464C13.951 9.35833 13.6334 9.06026 13.4478 8.7104C13.3172 8.4644 13.1373 8.26028 12.908 8.09804C12.5008 7.80998 11.8781 7.66595 11.0398 7.66595C10.1776 7.66595 9.55492 7.80998 9.17172 8.09804C8.78852 8.38611 8.59691 8.7942 8.59691 9.32232C8.59691 9.99447 8.96814 10.4866 9.7106 10.7986C10.4531 11.1107 11.6745 11.4228 13.375 11.7349C14.5486 11.9749 15.6622 12.275 16.7161 12.6351C17.7699 12.9711 18.7039 13.4392 19.5182 14.0394C20.3565 14.6395 21.0032 15.4077 21.4582 16.3439C21.9372 17.2561 22.1767 18.3843 22.1767 19.7286C22.1767 21.529 21.7217 23.0534 20.8116 24.3017C19.9254 25.5499 18.6441 26.4862 16.9675 27.1103C15.315 27.7344 13.3391 28.0465 11.0398 28.0465Z" fill="black"/>
<path d="M27.2329 22.1517C27.1947 22.1292 27.1511 22.117 27.1068 22.1202C26.7227 22.1485 25.7039 22.3678 25.8543 22.1173L29.8011 15.2228C29.9559 14.9648 29.9535 14.6416 29.7949 14.386L24.0034 4.15118C23.8377 3.88415 24.3497 3.30774 24.6635 3.30774H29.9074C30.0483 3.30774 31.0968 3.18638 31.1689 3.30774L34.673 8.41441C34.9818 8.93392 35.7313 8.93686 36.0442 8.41978L39.2659 3.09451C39.3384 2.97468 39.4681 2.90149 39.6079 2.90149H47.2161C47.5296 2.90149 47.7212 3.2465 47.5561 3.51355L40.875 14.3185C40.718 14.5724 40.7148 14.8928 40.8669 15.1498L47.9299 27.0899C48.088 27.3572 47.8958 27.6953 47.5859 27.6953H39.7595C39.6142 27.6953 39.4803 27.6163 39.4098 27.4889L35.9801 20.5771C35.6821 20.039 34.9207 20.0271 34.6022 20.5414C34.5877 20.5647 34.5727 20.5879 34.5556 20.6094L31.3312 24.6681C31.3227 24.6789 31.316 24.6931 31.3029 24.6973C31.1972 24.7311 30.7363 24.2046 30.5372 24.0848C30.4991 24.062 30.4548 24.049 30.4165 24.0265L27.2329 22.1517Z" fill="black"/>
<path fill-rule="evenodd" clip-rule="evenodd" d="M25.283 2.9394L30.3454 2.93932C30.9053 2.93931 31.4262 3.22586 31.726 3.69873L34.6891 8.37278C34.752 8.46681 34.8141 8.55963 34.8753 8.65128C33.9137 9.67881 33.0081 11.0122 32.5654 12.5457C32.2239 13.7285 32.1581 15.033 32.5613 16.3914C32.9411 17.6708 33.7256 18.9601 35.0206 20.2206L34.3387 21.4747L34.3382 21.4756C33.6664 22.7114 33.2863 23.4105 31.8596 26.0263C30.8803 24.6421 29.9332 23.7487 28.7724 23.2407C27.7437 22.7905 26.6025 22.6698 25.2397 22.6931C25.2828 22.6118 25.3285 22.5301 25.3769 22.4483C27.331 19.1413 28.7034 16.7244 29.3768 15.5249C29.6708 15.0011 29.6482 14.3595 29.3227 13.8547L23.9093 5.45982C23.2079 4.37211 23.9887 2.93942 25.283 2.9394ZM24.7434 24.0548C26.2899 23.9927 27.3433 24.0845 28.2327 24.4737C29.1871 24.8914 30.0383 25.693 31.0834 27.2767C28.5593 30.394 23.9898 27.8107 24.7434 24.0548ZM36.3876 17.7082C38.2778 14.8094 37.7473 13.0996 35.6383 9.81306C34.8791 10.6773 34.1982 11.7423 33.8585 12.919C33.5792 13.8866 33.5305 14.9267 33.8516 16.0084C34.1308 16.9489 34.6992 17.9531 35.6918 18.9867L36.3876 17.7082Z" fill="url(#paint0_linear_1107_860)"/>
<path d="M71.3382 28.1465C69.703 28.1465 68.1485 27.9157 66.6745 27.454C65.2236 26.9692 63.9338 26.2306 62.8053 25.238C61.6999 24.2454 60.8362 22.9642 60.2144 21.3945C59.5925 19.8017 59.2816 17.9089 59.2816 15.7159V15.0234C59.2816 12.9228 59.5925 11.1107 60.2144 9.5872C60.8362 8.06367 61.6999 6.81715 62.8053 5.84763C63.9338 4.85503 65.2236 4.1279 66.6745 3.66622C68.1485 3.18147 69.703 2.93909 71.3382 2.93909C72.9964 2.93909 74.551 3.18147 76.0019 3.66622C77.4759 4.1279 78.7656 4.85503 79.8711 5.84763C80.9766 6.81715 81.8518 8.06367 82.4966 9.5872C83.1415 11.1107 83.4639 12.9228 83.4639 15.0234V15.7159C83.4639 17.8858 83.1415 19.7671 82.4966 21.3599C81.8518 22.9296 80.9766 24.2223 79.8711 25.238C78.7656 26.2306 77.4759 26.9692 76.0019 27.454C74.551 27.9157 72.9964 28.1465 71.3382 28.1465ZM71.3382 21.8446C72.1213 21.8446 72.8237 21.66 73.4455 21.2906C74.0904 20.8982 74.5971 20.2634 74.9656 19.3862C75.3571 18.486 75.5528 17.2625 75.5528 15.7159V15.0234C75.5528 13.5691 75.3571 12.4265 74.9656 11.5955C74.5971 10.7414 74.0904 10.1412 73.4455 9.79495C72.8237 9.42561 72.1213 9.24094 71.3382 9.24094C70.5552 9.24094 69.8527 9.42561 69.2309 9.79495C68.6091 10.1412 68.1024 10.7414 67.7109 11.5955C67.3194 12.4265 67.1236 13.5691 67.1236 15.0234V15.7159C67.1236 17.2625 67.3194 18.486 67.7109 19.3862C68.1024 20.2634 68.6091 20.8982 69.2309 21.2906C69.8527 21.66 70.5552 21.8446 71.3382 21.8446Z" fill="black"/>
<path d="M120.565 28.1465C118.262 28.1465 116.201 27.7195 114.381 26.8654C112.562 25.9882 111.122 24.6378 110.063 22.8142C109.027 20.9675 108.508 18.6014 108.508 15.7159V15.0234C108.508 12.8997 108.808 11.0761 109.407 9.55257C110.028 8.02905 110.881 6.78253 111.963 5.81301C113.069 4.82041 114.335 4.09327 115.763 3.6316C117.214 3.16992 118.769 2.93909 120.427 2.93909C121.786 2.93909 123.087 3.11221 124.331 3.45847C125.574 3.78164 126.691 4.30103 127.682 5.01662C128.695 5.70913 129.524 6.6094 130.169 7.71742C130.708 8.61178 131.097 9.65654 131.336 10.8517C131.429 11.3162 131.062 11.734 130.589 11.734H124.198C123.831 11.734 123.524 11.4744 123.39 11.1325C123.253 10.7824 123.071 10.4866 122.845 10.2451C122.5 9.87574 122.108 9.62182 121.671 9.48332C121.256 9.32173 120.807 9.24094 120.323 9.24094C119.517 9.24094 118.815 9.42561 118.216 9.79495C117.617 10.1643 117.157 10.7645 116.834 11.5955C116.512 12.4265 116.35 13.5691 116.35 15.0234V15.7159C116.35 16.8009 116.454 17.7357 116.661 18.5206C116.869 19.2824 117.157 19.9172 117.525 20.425C117.917 20.9098 118.377 21.2676 118.907 21.4984C119.46 21.7292 120.07 21.8446 120.738 21.8446C121.452 21.8446 122.085 21.7408 122.638 21.533C123.191 21.3253 123.651 21.0021 124.02 20.5635C124.315 20.2329 124.525 19.8499 124.65 19.4145C124.716 19.1845 124.531 18.9707 124.292 18.9707H122.038C121.606 18.9707 121.256 18.6198 121.256 18.1869V15.3224C121.256 14.8896 121.606 14.5387 122.038 14.5387H131.218C131.65 14.5387 132 14.8896 132 15.3224V16.4084C132 18.486 131.7 20.275 131.102 21.7754C130.503 23.2528 129.674 24.4647 128.614 25.4111C127.555 26.3575 126.334 27.05 124.952 27.4886C123.594 27.9272 122.131 28.1465 120.565 28.1465Z" fill="black"/>
<path fill-rule="evenodd" clip-rule="evenodd" d="M86.5483 3.42384C86.1165 3.42384 85.7663 3.77476 85.7663 4.20763V26.878C85.7663 27.3108 86.1165 27.6617 86.5483 27.6617H92.6536C93.0855 27.6617 93.4356 27.3108 93.4356 26.878V9.31019H95.4047C96.6484 9.31019 97.512 9.54103 97.9957 10.0027C98.4793 10.4413 98.7211 11.0646 98.7211 11.8725C98.7211 12.6573 98.4793 13.2806 97.9957 13.7423C97.512 14.1809 96.6484 14.4002 95.4047 14.4002H95.2084C94.9925 14.4002 94.8174 14.5756 94.8174 14.792V18.7815C94.8174 19.5426 95.0017 20.2924 95.3545 20.9664L98.6396 27.2421C98.7747 27.5001 99.0414 27.6617 99.3321 27.6617H105.817C106.422 27.6617 106.798 27.0027 106.491 26.4802L102.263 19.2844C102.143 19.0812 102.229 18.8196 102.441 18.7163C103.737 18.0831 104.719 17.2215 105.389 16.1314C106.126 14.908 106.494 13.4883 106.494 11.8725C106.494 10.072 106.137 8.54843 105.423 7.30191C104.709 6.05539 103.615 5.09742 102.141 4.42799C100.667 3.75856 98.7787 3.42384 96.4756 3.42384H86.5483Z" fill="black"/>
<path d="M51.6338 23.351C51.6338 23.1345 51.8088 22.9591 52.0248 22.9591H55.9347C56.1507 22.9591 56.3257 23.1345 56.3257 23.351V27.2699C56.3257 27.4863 56.1507 27.6618 55.9347 27.6618H52.0248C51.8088 27.6618 51.6338 27.4863 51.6338 27.2699V23.351Z" fill="black"/>
<path d="M23.103 5.50464H34.0311" stroke="white" stroke-width="1.10014"/>
<defs>
<linearGradient id="paint0_linear_1107_860" x1="13.6464" y1="5.04152" x2="38.8817" y2="25.6143" gradientUnits="userSpaceOnUse">
<stop stop-color="#000AFF"/>
<stop offset="1" stop-color="#08E1FF"/>
</linearGradient>
</defs>
</svg>
