<?xml version="1.0" standalone="no"?>
<!DOCTYPE svg PUBLIC "-//W3C//DTD SVG 20010904//EN"
 "http://www.w3.org/TR/2001/REC-SVG-20010904/DTD/svg10.dtd">
<svg version="1.0" xmlns="http://www.w3.org/2000/svg"
 width="790.000000pt" height="223.000000pt" viewBox="0 0 790.000000 223.000000"
 preserveAspectRatio="xMidYMid meet">

<g transform="translate(0.000000,223.000000) scale(0.100000,-0.100000)"
fill="#000000" stroke="none">
<path d="M601 1860 c-186 -39 -311 -122 -373 -248 -30 -60 -33 -76 -37 -174
-5 -150 18 -224 94 -306 86 -93 171 -131 442 -197 159 -39 201 -57 229 -100
22 -33 9 -80 -29 -109 -24 -18 -42 -21 -125 -21 -116 0 -151 12 -181 65 -11
21 -28 41 -37 44 -9 3 -102 6 -208 6 -180 0 -194 -1 -211 -20 -16 -18 -17 -26
-6 -74 29 -130 111 -231 234 -290 214 -103 587 -97 801 11 65 33 146 111 180
173 38 70 59 179 51 264 -10 102 -38 167 -102 236 -87 95 -182 134 -496 205
-145 33 -177 55 -177 120 0 53 29 81 95 91 76 11 125 -4 173 -52 l43 -44 205
0 204 0 11 24 c9 19 7 36 -6 77 -47 145 -157 247 -320 300 -59 18 -97 22 -240
25 -93 2 -190 -1 -214 -6z"/>
<path d="M1559 1795 c-35 -19 -54 -66 -41 -102 5 -15 52 -93 104 -173 52 -80
126 -192 163 -250 52 -79 69 -114 69 -140 0 -27 -28 -84 -117 -239 -65 -112
-116 -205 -115 -207 2 -2 21 -5 41 -8 27 -3 37 -1 37 10 0 8 4 13 9 11 8 -2
75 72 91 103 5 10 6 20 3 24 -3 3 0 6 9 6 15 0 33 18 82 83 16 20 24 37 20 38
-5 0 0 4 11 8 11 5 20 12 20 17 0 10 65 78 69 72 1 -2 10 -24 20 -51 18 -47
93 -157 118 -173 7 -5 22 -8 33 -9 16 0 43 -44 130 -215 l110 -215 240 0 c212
0 240 2 243 16 2 9 -90 172 -203 364 -113 191 -205 355 -205 365 0 10 88 161
196 335 108 175 193 323 190 331 -4 11 -47 14 -238 14 l-233 0 -99 -165 c-96
-159 -116 -182 -149 -169 -8 3 -57 73 -109 156 -60 96 -103 155 -120 164 -39
20 -342 19 -379 -1z m716 -522 c22 -44 28 -74 29 -125 1 -61 -3 -74 -49 -163
l-49 -97 -28 34 c-48 57 -78 130 -83 198 -3 35 -2 61 1 58 5 -6 84 74 84 85 0
8 54 67 61 67 4 0 19 -26 34 -57z"/>
<path d="M4130 1803 c-286 -48 -482 -219 -544 -473 -24 -98 -30 -250 -17 -370
31 -264 136 -429 336 -525 126 -61 222 -79 389 -72 150 6 220 22 326 75 89 44
191 140 237 222 79 140 115 343 94 539 -6 60 -18 133 -27 162 -83 282 -342
452 -679 448 -49 -1 -101 -4 -115 -6z m250 -391 c35 -21 52 -41 79 -94 31 -62
34 -77 39 -181 10 -235 -43 -364 -167 -406 -113 -38 -231 17 -282 132 -22 48
-24 64 -24 227 0 165 1 178 24 220 13 25 33 56 45 68 67 74 194 89 286 34z"/>
<path d="M6937 1800 c-279 -47 -470 -229 -523 -499 -21 -107 -15 -385 10 -476
61 -221 201 -366 421 -435 99 -31 300 -39 416 -16 237 48 402 201 464 431 22
82 32 299 15 320 -11 13 -54 15 -301 15 -275 0 -289 -1 -299 -19 -14 -28 -13
-204 2 -219 7 -7 42 -12 89 -12 91 0 109 -12 85 -58 -39 -76 -136 -120 -241
-109 -150 15 -213 109 -223 331 -9 207 28 320 120 367 95 49 227 19 270 -61
31 -59 34 -60 243 -60 221 0 231 3 223 66 -9 65 -47 150 -93 213 -50 68 -159
150 -240 180 -122 46 -305 63 -438 41z"/>
<path d="M5102 1768 c-15 -15 -17 -1344 -2 -1368 14 -23 371 -28 406 -5 l24
15 0 515 0 515 95 0 c112 0 156 -15 185 -62 27 -44 27 -122 0 -166 -23 -38
-53 -51 -135 -60 l-60 -7 0 -165 0 -165 104 -199 c58 -110 113 -208 123 -218
16 -16 37 -18 213 -18 182 0 196 1 215 20 11 11 20 24 20 29 0 6 -56 106 -125
223 -69 118 -125 221 -125 229 1 7 26 30 57 49 115 72 172 180 180 340 14 271
-120 445 -381 495 -102 20 -775 22 -794 3z"/>
<path d="M3132 648 c-17 -17 -17 -239 0 -256 14 -14 225 -17 246 -4 9 7 12 41
10 138 l-3 129 -120 3 c-85 2 -124 -1 -133 -10z"/>
<path d="M1583 570 c3 -11 1 -18 -4 -14 -5 3 -9 -2 -9 -10 0 -23 16 -19 34 9
21 32 20 35 -5 35 -16 0 -20 -5 -16 -20z"/>
</g>
</svg>
